<?xml version="1.0" encoding="UTF-8" standalone="no"?>
<svg
   width="16"
   height="16"
   version="1.1"
   id="svg182"
   sodipodi:docname="scene_spawner.svg"
   inkscape:version="1.2.2 (b0a8486541, 2022-12-01)"
   xmlns:inkscape="http://www.inkscape.org/namespaces/inkscape"
   xmlns:sodipodi="http://sodipodi.sourceforge.net/DTD/sodipodi-0.dtd"
   xmlns="http://www.w3.org/2000/svg"
   xmlns:svg="http://www.w3.org/2000/svg">
  <defs
     id="defs186" />
  <sodipodi:namedview
     id="namedview184"
     pagecolor="#ffffff"
     bordercolor="#000000"
     borderopacity="0.25"
     inkscape:showpageshadow="2"
     inkscape:pageopacity="0.0"
     inkscape:pagecheckerboard="0"
     inkscape:deskcolor="#d1d1d1"
     showgrid="true"
     inkscape:zoom="34.117902"
     inkscape:cx="6.0965061"
     inkscape:cy="5.2758226"
     inkscape:window-width="1920"
     inkscape:window-height="992"
     inkscape:window-x="0"
     inkscape:window-y="0"
     inkscape:window-maximized="1"
     inkscape:current-layer="svg182">
    <inkscape:grid
       type="xygrid"
       id="grid876" />
  </sodipodi:namedview>
  <path
     id="path180"
     style="fill:#e0e0e0"
     d="M 14.564453 2 L 12.320312 2.328125 L 13.138672 4.2285156 L 14.853516 3.9785156 L 14.564453 2 z M 10.341797 2.6152344 L 8.3632812 2.9042969 L 9.1816406 4.8066406 L 11.160156 4.5175781 L 10.341797 2.6152344 z M 6.3828125 3.1933594 L 4.4042969 3.4824219 L 5.2226562 5.3847656 L 7.2011719 5.0957031 L 6.3828125 3.1933594 z M 2.4257812 3.7714844 L 0.7109375 4.0214844 L 1 6 L 3.2441406 5.671875 L 2.4257812 3.7714844 z M 1 7 L 1 13 A 2 2 0 0 0 3 15 L 15 15 L 15 7 L 1 7 z M 7 8 L 9 8 L 9 10 L 11 10 L 11 12 L 9 12 L 9 14 L 7 14 L 7 12 L 5 12 L 5 10 L 7 10 L 7 8 z " />
</svg>
